<?xml version="1.0" encoding="UTF-8"?>
<svg width="254px" height="154px" viewBox="0 0 254 154" version="1.1" xmlns="http://www.w3.org/2000/svg" xmlns:xlink="http://www.w3.org/1999/xlink">
    <!-- Generator: Sketch 48.2 (47327) - http://www.bohemiancoding.com/sketch -->
    <title>Microserve_Stacked_Logo_Dark_Background</title>
    <desc>Created with Sketch.</desc>
    <defs></defs>
    <g id="holding-page---desktop" stroke="none" stroke-width="1" fill="none" fill-rule="evenodd" transform="translate(-593.000000, -119.000000)">
        <g id="Microserve_Stacked_Logo_Dark_Background" transform="translate(593.000000, 118.000000)">
            <path d="M248.479094,138.826176 C248.301774,136.698327 247.888025,135.516189 246.943912,134.158327 C245.228214,131.853157 242.451786,130.436189 239.438931,130.436189 C236.426075,130.436189 233.707157,131.853157 232.11127,134.217434 C231.285371,135.516189 230.93073,136.63922 230.576088,138.826176 L248.479094,138.826176 Z M230.516981,142.134566 C230.753409,144.438138 231.167157,145.620277 232.290189,147.09795 C234.061799,149.521333 236.660906,150.820088 239.616252,150.820088 C242.983748,150.820088 246.175522,148.987774 247.769811,146.152239 L251.728377,147.629912 C249.483912,152.179547 244.814465,154.955975 239.616252,154.955975 C231.521799,154.955975 225.730918,149.046881 225.730918,140.775107 C225.730918,132.385119 231.462692,126.418516 239.438931,126.418516 C247.356063,126.418516 253.265157,132.385119 253.265157,140.361358 C253.265157,140.716 253.265157,141.48439 253.20605,142.134566 L230.516981,142.134566 Z" id="Fill-15" fill="#FFFFFE"></path>
            <polyline id="Fill-17" fill="#FFFFFE" points="222.433711 127.067094 212.211409 145.915811 201.950767 127.067094 197.030516 127.067094 212.211409 154.719547 227.390704 127.067094 222.433711 127.067094"></polyline>
            <path d="M186.559006,127.067094 L186.559006,131.675836 C187.384906,129.726906 187.975975,128.899409 189.039899,128.071912 C190.399358,127.007987 192.29078,126.418516 194.239711,126.418516 L195.303635,126.418516 L195.303635,130.966553 C194.83078,130.909044 194.357925,130.909044 194.06239,130.909044 C191.640604,130.909044 189.512755,132.030478 188.153296,134.040113 C186.972755,135.752616 186.559006,137.348503 186.559006,140.479572 L186.559006,154.305799 L182.068478,154.305799 L182.068478,127.067094 L186.559006,127.067094" id="Fill-13" fill="#FFFFFE"></path>
            <path d="M173.732805,138.826176 C173.557082,136.698327 173.141736,135.516189 172.196025,134.158327 C170.483522,131.853157 167.705497,130.436189 164.692642,130.436189 C161.679786,130.436189 158.962465,131.853157 157.366579,134.217434 C156.539082,135.516189 156.18444,136.63922 155.829799,138.826176 L173.732805,138.826176 Z M155.770692,142.134566 C156.007119,144.438138 156.422465,145.620277 157.543899,147.09795 C159.315509,149.521333 161.916214,150.820088 164.869962,150.820088 C168.237459,150.820088 171.429233,148.987774 173.023522,146.152239 L176.983686,147.629912 C174.737623,152.179547 170.069774,154.955975 164.869962,154.955975 C156.775509,154.955975 150.984629,149.046881 150.984629,140.775107 C150.984629,132.385119 156.716403,126.418516 164.692642,126.418516 C172.609774,126.418516 178.518868,132.385119 178.518868,140.361358 C178.518868,140.716 178.518868,141.48439 178.459761,142.134566 L155.770692,142.134566 Z" id="Fill-12" fill="#FFFFFE"></path>
            <path d="M142.946088,134.511371 L142.946088,134.217434 C142.946088,131.675836 140.877346,130.081547 137.746277,130.081547 C134.733421,130.081547 132.842,131.61673 132.842,133.979409 C132.842,136.343686 134.024138,137.230289 138.928415,138.589748 C142.414126,139.533862 144.244843,140.420465 145.545195,141.720818 C146.904654,143.080277 147.732151,145.029208 147.732151,147.038843 C147.732151,151.765799 143.832692,154.955975 138.041811,154.955975 C131.83878,154.955975 128.351472,152.061333 127.878616,146.565987 L132.310038,146.565987 C132.605572,149.63795 134.615208,151.292943 138.041811,151.292943 C141.113774,151.292943 143.123409,149.697057 143.123409,147.27527 C143.123409,144.910994 141.586629,143.730453 136.91878,142.548314 C131.011283,140.952428 128.351472,138.471535 128.351472,134.335648 C128.351472,129.608692 132.193421,126.418516 137.923597,126.418516 C143.714478,126.418516 147.200189,129.372264 147.436616,134.511371 L142.946088,134.511371" id="Fill-11" fill="#FFFFFE"></path>
            <path d="M101.876365,140.716 C101.876365,146.743308 105.600101,150.820088 111.152956,150.820088 C116.530088,150.820088 120.372038,146.625094 120.372038,140.716 C120.372038,134.631182 116.707409,130.552805 111.212063,130.552805 C105.600101,130.552805 101.876365,134.631182 101.876365,140.716 Z M124.979182,140.775107 C124.979182,148.752943 118.835258,154.955975 111.03634,154.955975 C102.940289,154.955975 97.2692201,149.046881 97.2692201,140.656893 C97.2692201,132.207799 102.940289,126.418516 111.212063,126.418516 C119.247409,126.418516 124.979182,132.385119 124.979182,140.775107 Z" id="Fill-10" fill="#FFFFFE"></path>
            <path d="M87.6347925,127.067094 L87.6347925,131.675836 C88.4622893,129.726906 89.054956,128.899409 90.117283,128.071912 C91.4767421,127.007987 93.366566,126.418516 95.3170943,126.418516 L96.3794214,126.418516 L96.3794214,130.966553 C95.9081635,130.909044 95.4353082,130.909044 95.1397736,130.909044 C92.7179874,130.909044 90.5901384,132.030478 89.2306792,134.040113 C88.0485409,135.752616 87.6347925,137.348503 87.6347925,140.479572 L87.6347925,154.305799 L83.1442642,154.305799 L83.1442642,127.067094 L87.6347925,127.067094" id="Fill-9" fill="#FFFFFE"></path>
            <path d="M78.8278616,150.938302 C75.7558994,153.716327 72.743044,154.955975 68.784478,154.955975 C60.9855597,154.955975 55.4311069,149.046881 55.4311069,140.775107 C55.4311069,132.326013 61.0430692,126.418516 69.0209057,126.418516 C72.9203648,126.418516 76.1121384,127.71727 78.9460755,130.495296 L76.051434,133.389937 C73.9826918,131.498516 71.6791195,130.552805 69.1391195,130.552805 C63.7619874,130.552805 60.0398491,134.688692 60.0398491,140.599384 C60.0398491,146.625094 63.7619874,150.820088 69.0800126,150.820088 C71.7382264,150.820088 73.8660755,149.933484 76.051434,147.864742 L78.8278616,150.938302" id="Fill-8" fill="#FFFFFE"></path>
            <path d="M47.039522,154.305799 L51.5300503,154.305799 L51.5300503,127.067094 L47.039522,127.067094 L47.039522,154.305799 Z M52.1802264,119.445497 C52.1802264,121.041384 50.8798742,122.282629 49.2839874,122.282629 C47.6896981,122.282629 46.4484528,121.041384 46.4484528,119.38639 C46.4484528,117.732994 47.6896981,116.491748 49.3430943,116.491748 C50.9389811,116.491748 52.1802264,117.792101 52.1802264,119.445497 Z" id="Fill-6" fill="#FFFFFE"></path>
            <polyline id="Fill-14" fill="#FFFFFE" points="4.96338365 154.305799 0 154.305799 0 114.895862 4.90427673 114.895862 20.9749686 144.438138 37.2245786 114.895862 42.0681509 114.895862 42.0681509 154.305799 37.1063648 154.305799 37.1063648 125.472805 20.9749686 154.719547 4.96338365 125.413698 4.96338365 154.305799"></polyline>
            <polyline id="Fill-1" fill="#FFFFFE" points="59.538239 97.1605912 46.7583648 97.1605912 97.8778616 1.31153459 110.657736 1.31153459 59.538239 97.1605912"></polyline>
            <polyline id="Fill-2" fill="#FFFFFE" points="123.43761 97.1605912 110.657736 97.1605912 161.777233 1.31153459 174.557107 1.31153459 123.43761 97.1605912"></polyline>
            <polyline id="Fill-3" fill="#75C6C8" points="91.4879245 97.1605912 78.7080503 97.1605912 129.827547 1.31153459 142.607421 1.31153459 91.4879245 97.1605912"></polyline>
            <polyline id="Fill-4" fill="#F1AC3D" points="168.16717 49.2360629 142.607421 97.1605912 155.387296 97.1605912 177.752075 55.626 168.16717 49.2360629"></polyline>
            <polyline id="Fill-5" fill="#FFFFFE" points="174.557107 36.4561887 168.16717 49.2360629 193.726918 97.1605912 206.506792 97.1605912 174.557107 36.4561887"></polyline>
        </g>
    </g>
</svg>